<svg width="9" height="8" viewBox="0 0 9 8" fill="none" xmlns="http://www.w3.org/2000/svg">
<path fill-rule="evenodd" clip-rule="evenodd" d="M4.50001 0.125015C4.70711 0.125015 4.87501 0.292908 4.87501 0.500015V3.62501H8.00002C8.20712 3.62501 8.37502 3.7929 8.37502 4.00001C8.37502 4.20711 8.20712 4.37501 8.00002 4.37501H4.87501V7.50002C4.87501 7.70712 4.70711 7.87502 4.50001 7.87502C4.2929 7.87502 4.12501 7.70712 4.12501 7.50002V4.37501H1.00002C0.792908 4.37501 0.625015 4.20711 0.625015 4.00001C0.625015 3.7929 0.792908 3.62501 1.00002 3.62501H4.12501V0.500015C4.12501 0.292908 4.2929 0.125015 4.50001 0.125015Z" fill="black"/>
</svg>
