<svg width="22" height="21" viewBox="0 0 22 21" fill="none" xmlns="http://www.w3.org/2000/svg">
<path fill-rule="evenodd" clip-rule="evenodd" d="M11 0.250031C11.2855 0.250031 11.5462 0.412085 11.6725 0.668063L14.5882 6.57488L21.1085 7.52792C21.3909 7.5692 21.6254 7.7672 21.7135 8.03871C21.8015 8.31021 21.7278 8.60815 21.5233 8.8073L16.8059 13.4021L17.9192 19.8932C17.9675 20.1746 17.8518 20.459 17.6208 20.6268C17.3898 20.7946 17.0836 20.8167 16.8309 20.6838L11 17.6174L5.16911 20.6838C4.91642 20.8167 4.6102 20.7946 4.37922 20.6268C4.14823 20.459 4.03255 20.1746 4.08081 19.8932L5.19413 13.4021L0.476719 8.8073C0.272255 8.60815 0.19855 8.31021 0.286583 8.03871C0.374617 7.7672 0.609127 7.5692 0.891547 7.52792L7.41182 6.57488L10.3275 0.668063C10.4538 0.412085 10.7146 0.250031 11 0.250031ZM11 2.69447L8.58255 7.592C8.47339 7.81313 8.2625 7.96648 8.01849 8.00214L2.61133 8.79248L6.52332 12.6028C6.70022 12.7751 6.78097 13.0234 6.73922 13.2668L5.81615 18.6488L10.6509 16.1062C10.8695 15.9913 11.1306 15.9913 11.3491 16.1062L16.1839 18.6488L15.2608 13.2668C15.2191 13.0234 15.2998 12.7751 15.4767 12.6028L19.3887 8.79248L13.9815 8.00214C13.7375 7.96648 13.5266 7.81313 13.4175 7.592L11 2.69447Z" fill="white"/>
</svg>
